<svg xmlns="http://www.w3.org/2000/svg" version="1.1" xmlns:xlink="http://www.w3.org/1999/xlink" xmlns:svgjs="http://svgjs.dev/svgjs" width="1000" height="63" viewBox="0 0 1000 63"><g transform="matrix(1,0,0,1,-0.6060605986642145,-0.22692809273750214)"><svg viewBox="0 0 396 25" data-background-color="#67648e" preserveAspectRatio="xMidYMid meet" height="63" width="1000" xmlns="http://www.w3.org/2000/svg" xmlns:xlink="http://www.w3.org/1999/xlink"><g id="tight-bounds" transform="matrix(1,0,0,1,0.24000000292903678,0.09005083045138917)"><svg viewBox="0 0 395.52 24.819898339097207" height="24.819898339097207" width="395.52"><g><svg viewBox="0 0 426.8840666176669 26.788074271922767" height="24.819898339097207" width="395.52"><g transform="matrix(1,0,0,1,0,3.702259179404667)"><svg viewBox="0 0 395.52 19.383555913113433" height="19.383555913113433" width="395.52"><g id="textblocktransform"><svg viewBox="0 0 395.52 19.383555913113433" height="19.383555913113433" width="395.52" id="textblock"><g><svg viewBox="0 0 395.52 19.383555913113433" height="19.383555913113433" width="395.52"><g transform="matrix(1,0,0,1,0,0)"><svg width="395.52" viewBox="0.800000011920929 -35.95000076293945 745.739990234375 36.54999923706055" height="19.383555913113433" data-palette-color="#e4e3ee"><path d="M15.85-8.65L15.85-8.65 26.2-35.05 27.65-35.05 36.7-8.45Q37.75-5.3 38.1-3.9L38.1-3.9Q38.5-5.55 39.5-8.4L39.5-8.4 48.7-35.75 51.2-35.75 38.75 0.3 37.35 0.3 28.1-26.2Q27.9-26.85 27.68-27.5 27.45-28.15 27.3-28.65 27.15-29.15 27-29.5L27-29.5 26.8-30.1Q26.75-30.35 26.75-30.4L26.75-30.4Q26.15-28.6 25.2-26.25L25.2-26.25 14.75 0.3 13.35 0.3 0.8-35.75 3.45-35.75 12.6-8.85Q13.25-7.05 13.68-5.6 14.1-4.15 14.15-4L14.15-4Q14.4-5.15 15.85-8.65ZM73.65 0L58 0 58-32.45 73.15-32.45 73.15-30.45 60.3-30.45 60.3-18.65 71.9-18.65 71.9-16.7 60.3-16.7 60.3-2.1 73.65-2.1 73.65 0ZM100.05 0L82.84 0 82.84-32.45 85.14-32.45 85.14-2.1 100.05-2.1 100.05 0ZM129.34-3.2L130.09-1.6Q126.34 0.5 119.67 0.5 112.99 0.5 107.92-4.3 102.84-9.1 102.84-16.23 102.84-23.35 107.27-28.15 111.69-32.95 118.69-32.95L118.69-32.95Q124.34-32.95 129.74-31.2L129.74-31.2 129.14-29.3Q123.94-30.9 118.39-30.9 112.84-30.9 109.07-26.68 105.29-22.45 105.29-16.32 105.29-10.2 109.67-5.9 114.04-1.6 119.79-1.6 125.54-1.6 129.34-3.2L129.34-3.2ZM152.14 0.5Q145.19 0.5 140.49-4.35 135.79-9.2 135.79-16.23 135.79-23.25 140.49-28.1 145.19-32.95 152.14-32.95 159.09-32.95 163.79-28.1 168.49-23.25 168.49-16.23 168.49-9.2 163.79-4.35 159.09 0.5 152.14 0.5ZM152.17-30.9Q146.14-30.9 142.17-26.65 138.19-22.4 138.19-16.23 138.19-10.05 142.17-5.83 146.14-1.6 152.17-1.6 158.19-1.6 162.14-5.83 166.09-10.05 166.09-16.23 166.09-22.4 162.14-26.65 158.19-30.9 152.17-30.9ZM204.19-24.6L193.54-1.7 192.19-1.7 182.74-24.65Q182.14-26 181.54-27.8L181.54-27.8Q181.54-27.75 181.46-27.25 181.39-26.75 181.29-25.93 181.19-25.1 181.09-24.55L181.09-24.55 177.34 0 175.09 0 180.39-32.65 181.74-32.65 191.84-8.7Q193.04-5.7 193.04-5.55L193.04-5.55Q193.39-6.6 194.39-8.65L194.39-8.65 205.64-32.65 206.99-32.65 211.94 0 209.54 0 205.99-24.65Q205.64-27.1 205.64-27.9L205.64-27.9 204.19-24.6ZM236.19 0L220.54 0 220.54-32.45 235.69-32.45 235.69-30.45 222.84-30.45 222.84-18.65 234.44-18.65 234.44-16.7 222.84-16.7 222.84-2.1 236.19-2.1 236.19 0ZM266.38 0L263.98 0 263.98-35.75 266.38-35.75 266.38 0ZM281.28 0L278.98 0 278.98-32.65 280.08-32.65 301.38-8.15Q302.53-6.85 303.5-5.58 304.48-4.3 304.53-4.25L304.53-4.25Q304.43-5.45 304.43-8.95L304.43-8.95 304.43-32.45 306.73-32.45 306.73 0.2 305.63 0.2 283.93-24.7 281.18-28.05Q281.28-27.05 281.28-23.35L281.28-23.35 281.28 0ZM337.32-0.1L337.32-35.65Q341.22-35.95 345.3-35.95 349.37-35.95 352.35-33.95 355.32-31.95 355.32-28.15L355.32-28.15Q355.32-25.3 353.75-22.85 352.17-20.4 349.97-19.15L349.97-19.15Q353.52-18.05 355.92-15.35 358.32-12.65 358.32-9.3L358.32-9.3Q358.32-4.6 355.35-2.15 352.37 0.3 347.2 0.3 342.02 0.3 337.32-0.1L337.32-0.1ZM347.47-1.85Q351.12-1.85 353.47-3.88 355.82-5.9 355.82-9.05 355.82-12.2 353.55-14.5 351.27-16.8 347.32-17.65L347.32-17.65Q345.47-18.05 343.05-18.05 340.62-18.05 339.72-18.05L339.72-18.05 339.72-2.1Q341.92-1.85 347.47-1.85L347.47-1.85ZM352.92-28.23Q352.92-30.95 350.65-32.45 348.37-33.95 345.55-33.95 342.72-33.95 339.72-33.75L339.72-33.75 339.72-20.1Q340.37-20.1 342.17-20.1 343.97-20.1 347.47-19.8L347.47-19.8Q349.72-21 351.32-23.25 352.92-25.5 352.92-28.23ZM370.47 0L368.17 0 368.17-32.3Q372.47-32.65 375.47-32.65L375.47-32.65Q380.07-32.65 383.07-30.28 386.07-27.9 386.07-23.5L386.07-23.5Q386.07-20.55 384.37-18.05 382.67-15.55 380.52-14L380.52-14Q386.47-6.1 387.87-4.55L387.87-4.55Q390.72-1.6 394.07-1.2L394.07-1.2 394.02 0.35Q391.22 0.3 389.47-0.48 387.72-1.25 386-3.1 384.27-4.95 378.42-13.05L378.42-13.05Q374.37-13.05 370.47-13.3L370.47-13.3 370.47 0ZM377.17-14.95L377.17-14.95Q379.12-14.95 381.37-17.55 383.62-20.15 383.62-23.6 383.62-27.05 381.27-28.85 378.92-30.65 375.17-30.65L375.17-30.65Q373.17-30.65 370.47-30.45L370.47-30.45 370.47-15.2Q374.07-14.95 377.17-14.95ZM415.77-11.25L401.37-11.25 396.72 0 394.37 0 407.97-32.65 409.32-32.65 423.02 0 420.47 0 415.77-11.25ZM408.52-28.95L408.52-28.95Q407.77-26.7 407.17-25.2L407.17-25.2 402.17-13.2 414.97-13.2 410.02-25.15Q408.87-27.95 408.52-28.95ZM456.77 0L454.47 0 454.47-16.4 431.92-16.4 431.92 0 429.62 0 429.62-32.45 431.92-32.45 431.92-18.45 454.47-18.45 454.47-32.45 456.77-32.45 456.77 0ZM471.06 0L468.76 0 468.76-32.45 471.06-32.45 471.06 0ZM508.76-24.6L498.11-1.7 496.76-1.7 487.31-24.65Q486.71-26 486.11-27.8L486.11-27.8Q486.11-27.75 486.04-27.25 485.96-26.75 485.86-25.93 485.76-25.1 485.66-24.55L485.66-24.55 481.91 0 479.66 0 484.96-32.65 486.31-32.65 496.41-8.7Q497.61-5.7 497.61-5.55L497.61-5.55Q497.96-6.6 498.96-8.65L498.96-8.65 510.21-32.65 511.56-32.65 516.51 0 514.11 0 510.56-24.65Q510.21-27.1 510.21-27.9L510.21-27.9 508.76-24.6ZM522.76-28.35L521.31-28.35 520.91-35.75 523.16-35.75 522.76-28.35ZM537.5-31.05L537.5-31.05Q534.81-31.05 533.11-29.75 531.41-28.45 531.41-26.1L531.41-26.1Q531.41-23.4 533.66-21.25L533.66-21.25Q535.25-19.7 537.78-17.98 540.31-16.25 541.25-15.5 542.21-14.75 543.56-13.45L543.56-13.45Q546-11 546-7.8L546-7.8Q546-3.65 543.23-1.53 540.46 0.6 535.48 0.6 530.5 0.6 527.16-2L527.16-2 528.36-3.75Q531.75-1.45 535.56-1.45 539.36-1.45 541.48-3.05 543.61-4.65 543.61-7.55L543.61-7.55Q543.61-10.05 541.46-12.15L541.46-12.15Q539.96-13.65 537.43-15.4 534.91-17.15 533.91-17.93 532.91-18.7 531.56-20L531.56-20Q529-22.55 529-25.9 529-29.25 531.38-31.15 533.75-33.05 537.96-33.05 542.16-33.05 545.5-31.4L545.5-31.4 544.66-29.55Q541.56-31.05 537.5-31.05ZM583.05-8.65L583.05-8.65 593.4-35.05 594.85-35.05 603.9-8.45Q604.95-5.3 605.3-3.9L605.3-3.9Q605.7-5.55 606.7-8.4L606.7-8.4 615.9-35.75 618.4-35.75 605.95 0.3 604.55 0.3 595.3-26.2Q595.1-26.85 594.87-27.5 594.65-28.15 594.5-28.65 594.35-29.15 594.2-29.5L594.2-29.5 594-30.1Q593.95-30.35 593.95-30.4L593.95-30.4Q593.35-28.6 592.4-26.25L592.4-26.25 581.95 0.3 580.55 0.3 568-35.75 570.65-35.75 579.8-8.85Q580.45-7.05 580.87-5.6 581.3-4.15 581.35-4L581.35-4Q581.6-5.15 583.05-8.65ZM638.85 0.5Q631.9 0.5 627.2-4.35 622.5-9.2 622.5-16.23 622.5-23.25 627.2-28.1 631.9-32.95 638.85-32.95 645.8-32.95 650.5-28.1 655.2-23.25 655.2-16.23 655.2-9.2 650.5-4.35 645.8 0.5 638.85 0.5ZM638.87-30.9Q632.85-30.9 628.87-26.65 624.9-22.4 624.9-16.23 624.9-10.05 628.87-5.83 632.85-1.6 638.87-1.6 644.9-1.6 648.85-5.83 652.8-10.05 652.8-16.23 652.8-22.4 648.85-26.65 644.9-30.9 638.87-30.9ZM667.49 0L665.19 0 665.19-32.3Q669.49-32.65 672.49-32.65L672.49-32.65Q677.09-32.65 680.09-30.28 683.09-27.9 683.09-23.5L683.09-23.5Q683.09-20.55 681.39-18.05 679.69-15.55 677.54-14L677.54-14Q683.49-6.1 684.89-4.55L684.89-4.55Q687.74-1.6 691.09-1.2L691.09-1.2 691.04 0.35Q688.24 0.3 686.49-0.48 684.74-1.25 683.02-3.1 681.29-4.95 675.44-13.05L675.44-13.05Q671.39-13.05 667.49-13.3L667.49-13.3 667.49 0ZM674.19-14.95L674.19-14.95Q676.14-14.95 678.39-17.55 680.64-20.15 680.64-23.6 680.64-27.05 678.29-28.85 675.94-30.65 672.19-30.65L672.19-30.65Q670.19-30.65 667.49-30.45L667.49-30.45 667.49-15.2Q671.09-14.95 674.19-14.95ZM712.79 0L695.59 0 695.59-32.45 697.89-32.45 697.89-2.1 712.79-2.1 712.79 0ZM729.99-1.7L729.99-1.7Q736.39-1.7 740.26-5.15 744.14-8.6 744.14-15.55 744.14-22.5 739.76-26.6 735.39-30.7 728.99-30.7L728.99-30.7Q724.44-30.7 721.99-30.5L721.99-30.5 721.99-2.05Q724.99-1.7 729.99-1.7ZM728.99-32.75L728.99-32.75Q736.49-32.75 741.51-28.13 746.54-23.5 746.54-15.55 746.54-7.6 741.91-3.6 737.29 0.4 729.99 0.4L729.99 0.4Q724.94 0.4 719.59-0.1L719.59-0.1 719.59-32.45Q723.59-32.75 728.99-32.75Z" opacity="1" transform="matrix(1,0,0,1,0,0)" fill="#e4e3ee" class="undefined-text-0" data-fill-palette-color="primary" id="text-0"></path></svg></g></svg></g></svg></g></svg></g><g transform="matrix(1,0,0,1,400.09599234574415,0)"><svg viewBox="0 0 26.788074271922767 26.788074271922767" height="26.788074271922767" width="26.788074271922767"><g data-palette-color="#6b7280"><rect width="7.322073634325556" height="26.788074271922767" fill="#6b7280" stroke="transparent" data-fill-palette-color="accent" x="0" fill-opacity="1"></rect><rect width="7.322073634325556" height="26.788074271922767" fill="#6b7280" stroke="transparent" data-fill-palette-color="accent" x="8.929358090640921" fill-opacity="0.75"></rect><rect width="7.322073634325556" height="26.788074271922767" fill="#6b7280" stroke="transparent" data-fill-palette-color="accent" x="17.858716181281842" fill-opacity="0.5"></rect></g></svg></g></svg></g><defs></defs></svg><rect width="395.52" height="24.819898339097207" fill="none" stroke="none" visibility="hidden"></rect></g></svg></g></svg>